<mxfile host="app.diagrams.net" modified="2024-05-14T05:41:21.378Z" agent="Mozilla/5.0 (Windows NT 10.0; Win64; x64) AppleWebKit/537.36 (KHTML, like Gecko) Chrome/124.0.0.0 Safari/537.36" etag="wmXSr2VxhEG-3adtmSFr" version="24.4.0" type="device">
  <diagram id="C5RBs43oDa-KdzZeNtuy" name="Page-1">
    <mxGraphModel dx="2415" dy="3230" grid="0" gridSize="10" guides="1" tooltips="1" connect="1" arrows="1" fold="1" page="1" pageScale="1" pageWidth="827" pageHeight="1169" math="0" shadow="0">
      <root>
        <mxCell id="WIyWlLk6GJQsqaUBKTNV-0" />
        <mxCell id="WIyWlLk6GJQsqaUBKTNV-1" parent="WIyWlLk6GJQsqaUBKTNV-0" />
        <mxCell id="zkfFHV4jXpPFQw0GAbJ--12" value="" style="endArrow=block;endSize=10;endFill=0;shadow=0;strokeWidth=1;rounded=0;curved=0;edgeStyle=elbowEdgeStyle;elbow=vertical;" parent="WIyWlLk6GJQsqaUBKTNV-1" edge="1">
          <mxGeometry width="160" relative="1" as="geometry">
            <mxPoint x="-467.8" y="238" as="sourcePoint" />
            <mxPoint x="-367.8" y="136" as="targetPoint" />
          </mxGeometry>
        </mxCell>
        <mxCell id="zkfFHV4jXpPFQw0GAbJ--13" value="POST_PRODUCTION" style="swimlane;fontStyle=0;align=center;verticalAlign=top;childLayout=stackLayout;horizontal=1;startSize=26;horizontalStack=0;resizeParent=1;resizeLast=0;collapsible=1;marginBottom=0;rounded=0;shadow=0;strokeWidth=1;" parent="WIyWlLk6GJQsqaUBKTNV-1" vertex="1">
          <mxGeometry x="-337.8" y="238" width="160" height="70" as="geometry">
            <mxRectangle x="340" y="380" width="170" height="26" as="alternateBounds" />
          </mxGeometry>
        </mxCell>
        <mxCell id="zkfFHV4jXpPFQw0GAbJ--14" value="Salary" style="text;align=left;verticalAlign=top;spacingLeft=4;spacingRight=4;overflow=hidden;rotatable=0;points=[[0,0.5],[1,0.5]];portConstraint=eastwest;" parent="zkfFHV4jXpPFQw0GAbJ--13" vertex="1">
          <mxGeometry y="26" width="160" height="26" as="geometry" />
        </mxCell>
        <mxCell id="zkfFHV4jXpPFQw0GAbJ--15" value="" style="line;html=1;strokeWidth=1;align=left;verticalAlign=middle;spacingTop=-1;spacingLeft=3;spacingRight=3;rotatable=0;labelPosition=right;points=[];portConstraint=eastwest;" parent="zkfFHV4jXpPFQw0GAbJ--13" vertex="1">
          <mxGeometry y="52" width="160" height="8" as="geometry" />
        </mxCell>
        <mxCell id="zkfFHV4jXpPFQw0GAbJ--16" value="" style="endArrow=block;endSize=10;endFill=0;shadow=0;strokeWidth=1;rounded=0;curved=0;edgeStyle=elbowEdgeStyle;elbow=vertical;" parent="WIyWlLk6GJQsqaUBKTNV-1" source="zkfFHV4jXpPFQw0GAbJ--13" edge="1">
          <mxGeometry width="160" relative="1" as="geometry">
            <mxPoint x="-457.8" y="251" as="sourcePoint" />
            <mxPoint x="-367.8" y="136" as="targetPoint" />
          </mxGeometry>
        </mxCell>
        <mxCell id="hjpZ53rHqYIMn-Crg0at-2" value="&lt;b&gt;USERS&lt;/b&gt;" style="text;strokeColor=none;align=center;fillColor=none;html=1;verticalAlign=middle;whiteSpace=wrap;rounded=0;" vertex="1" parent="WIyWlLk6GJQsqaUBKTNV-1">
          <mxGeometry x="-439.2" y="-1886" width="59" height="82" as="geometry" />
        </mxCell>
        <mxCell id="hjpZ53rHqYIMn-Crg0at-3" value="" style="shape=table;startSize=0;container=1;collapsible=0;childLayout=tableLayout;" vertex="1" parent="WIyWlLk6GJQsqaUBKTNV-1">
          <mxGeometry x="-435.2" y="-1830" width="1111.880894252232" height="30" as="geometry" />
        </mxCell>
        <mxCell id="hjpZ53rHqYIMn-Crg0at-4" value="" style="shape=tableRow;horizontal=0;startSize=0;swimlaneHead=0;swimlaneBody=0;strokeColor=inherit;top=0;left=0;bottom=0;right=0;collapsible=0;dropTarget=0;fillColor=none;points=[[0,0.5],[1,0.5]];portConstraint=eastwest;" vertex="1" parent="hjpZ53rHqYIMn-Crg0at-3">
          <mxGeometry width="1111.880894252232" height="30" as="geometry" />
        </mxCell>
        <mxCell id="hjpZ53rHqYIMn-Crg0at-5" value="userID" style="shape=partialRectangle;html=1;whiteSpace=wrap;connectable=0;strokeColor=inherit;overflow=hidden;fillColor=none;top=0;left=0;bottom=0;right=0;pointerEvents=1;fontStyle=4" vertex="1" parent="hjpZ53rHqYIMn-Crg0at-4">
          <mxGeometry width="63" height="30" as="geometry">
            <mxRectangle width="63" height="30" as="alternateBounds" />
          </mxGeometry>
        </mxCell>
        <mxCell id="hjpZ53rHqYIMn-Crg0at-6" value="username" style="shape=partialRectangle;html=1;whiteSpace=wrap;connectable=0;strokeColor=inherit;overflow=hidden;fillColor=none;top=0;left=0;bottom=0;right=0;pointerEvents=1;" vertex="1" parent="hjpZ53rHqYIMn-Crg0at-4">
          <mxGeometry x="63" width="65" height="30" as="geometry">
            <mxRectangle width="65" height="30" as="alternateBounds" />
          </mxGeometry>
        </mxCell>
        <mxCell id="hjpZ53rHqYIMn-Crg0at-7" value="firstName" style="shape=partialRectangle;html=1;whiteSpace=wrap;connectable=0;strokeColor=inherit;overflow=hidden;fillColor=none;top=0;left=0;bottom=0;right=0;pointerEvents=1;" vertex="1" parent="hjpZ53rHqYIMn-Crg0at-4">
          <mxGeometry x="128" width="63" height="30" as="geometry">
            <mxRectangle width="63" height="30" as="alternateBounds" />
          </mxGeometry>
        </mxCell>
        <mxCell id="hjpZ53rHqYIMn-Crg0at-8" value="lastName" style="shape=partialRectangle;html=1;whiteSpace=wrap;connectable=0;strokeColor=inherit;overflow=hidden;fillColor=none;top=0;left=0;bottom=0;right=0;pointerEvents=1;" vertex="1" parent="hjpZ53rHqYIMn-Crg0at-4">
          <mxGeometry x="191" width="64" height="30" as="geometry">
            <mxRectangle width="64" height="30" as="alternateBounds" />
          </mxGeometry>
        </mxCell>
        <mxCell id="hjpZ53rHqYIMn-Crg0at-9" value="email" style="shape=partialRectangle;html=1;whiteSpace=wrap;connectable=0;strokeColor=inherit;overflow=hidden;fillColor=none;top=0;left=0;bottom=0;right=0;pointerEvents=1;" vertex="1" parent="hjpZ53rHqYIMn-Crg0at-4">
          <mxGeometry x="255" width="63" height="30" as="geometry">
            <mxRectangle width="63" height="30" as="alternateBounds" />
          </mxGeometry>
        </mxCell>
        <mxCell id="hjpZ53rHqYIMn-Crg0at-10" value="password" style="shape=partialRectangle;html=1;whiteSpace=wrap;connectable=0;strokeColor=inherit;overflow=hidden;fillColor=none;top=0;left=0;bottom=0;right=0;pointerEvents=1;" vertex="1" parent="hjpZ53rHqYIMn-Crg0at-4">
          <mxGeometry x="318" width="65" height="30" as="geometry">
            <mxRectangle width="65" height="30" as="alternateBounds" />
          </mxGeometry>
        </mxCell>
        <mxCell id="hjpZ53rHqYIMn-Crg0at-11" value="isAdmin" style="shape=partialRectangle;html=1;whiteSpace=wrap;connectable=0;strokeColor=inherit;overflow=hidden;fillColor=none;top=0;left=0;bottom=0;right=0;pointerEvents=1;" vertex="1" parent="hjpZ53rHqYIMn-Crg0at-4">
          <mxGeometry x="383" width="62" height="30" as="geometry">
            <mxRectangle width="62" height="30" as="alternateBounds" />
          </mxGeometry>
        </mxCell>
        <mxCell id="hjpZ53rHqYIMn-Crg0at-12" value="City" style="shape=partialRectangle;html=1;whiteSpace=wrap;connectable=0;strokeColor=inherit;overflow=hidden;fillColor=none;top=0;left=0;bottom=0;right=0;pointerEvents=1;" vertex="1" parent="hjpZ53rHqYIMn-Crg0at-4">
          <mxGeometry x="445" width="64" height="30" as="geometry">
            <mxRectangle width="64" height="30" as="alternateBounds" />
          </mxGeometry>
        </mxCell>
        <mxCell id="hjpZ53rHqYIMn-Crg0at-13" value="State" style="shape=partialRectangle;html=1;whiteSpace=wrap;connectable=0;strokeColor=inherit;overflow=hidden;fillColor=none;top=0;left=0;bottom=0;right=0;pointerEvents=1;" vertex="1" parent="hjpZ53rHqYIMn-Crg0at-4">
          <mxGeometry x="509" width="64" height="30" as="geometry">
            <mxRectangle width="64" height="30" as="alternateBounds" />
          </mxGeometry>
        </mxCell>
        <mxCell id="hjpZ53rHqYIMn-Crg0at-14" value="postalCode" style="shape=partialRectangle;html=1;whiteSpace=wrap;connectable=0;strokeColor=inherit;overflow=hidden;fillColor=none;top=0;left=0;bottom=0;right=0;pointerEvents=1;" vertex="1" parent="hjpZ53rHqYIMn-Crg0at-4">
          <mxGeometry x="573" width="63" height="30" as="geometry">
            <mxRectangle width="63" height="30" as="alternateBounds" />
          </mxGeometry>
        </mxCell>
        <mxCell id="hjpZ53rHqYIMn-Crg0at-15" value="dateOfBirth" style="shape=partialRectangle;html=1;whiteSpace=wrap;connectable=0;strokeColor=inherit;overflow=hidden;fillColor=none;top=0;left=0;bottom=0;right=0;pointerEvents=1;" vertex="1" parent="hjpZ53rHqYIMn-Crg0at-4">
          <mxGeometry x="636" width="64" height="30" as="geometry">
            <mxRectangle width="64" height="30" as="alternateBounds" />
          </mxGeometry>
        </mxCell>
        <mxCell id="hjpZ53rHqYIMn-Crg0at-16" value="gender" style="shape=partialRectangle;html=1;whiteSpace=wrap;connectable=0;strokeColor=inherit;overflow=hidden;fillColor=none;top=0;left=0;bottom=0;right=0;pointerEvents=1;" vertex="1" parent="hjpZ53rHqYIMn-Crg0at-4">
          <mxGeometry x="700" width="64" height="30" as="geometry">
            <mxRectangle width="64" height="30" as="alternateBounds" />
          </mxGeometry>
        </mxCell>
        <mxCell id="hjpZ53rHqYIMn-Crg0at-17" value="country" style="shape=partialRectangle;html=1;whiteSpace=wrap;connectable=0;strokeColor=inherit;overflow=hidden;fillColor=none;top=0;left=0;bottom=0;right=0;pointerEvents=1;" vertex="1" parent="hjpZ53rHqYIMn-Crg0at-4">
          <mxGeometry x="764" width="63" height="30" as="geometry">
            <mxRectangle width="63" height="30" as="alternateBounds" />
          </mxGeometry>
        </mxCell>
        <mxCell id="hjpZ53rHqYIMn-Crg0at-18" value="apiKey" style="shape=partialRectangle;html=1;whiteSpace=wrap;connectable=0;strokeColor=inherit;overflow=hidden;fillColor=none;top=0;left=0;bottom=0;right=0;pointerEvents=1;" vertex="1" parent="hjpZ53rHqYIMn-Crg0at-4">
          <mxGeometry x="827" width="64" height="30" as="geometry">
            <mxRectangle width="64" height="30" as="alternateBounds" />
          </mxGeometry>
        </mxCell>
        <mxCell id="hjpZ53rHqYIMn-Crg0at-19" value="salt" style="shape=partialRectangle;html=1;whiteSpace=wrap;connectable=0;strokeColor=inherit;overflow=hidden;fillColor=none;top=0;left=0;bottom=0;right=0;pointerEvents=1;" vertex="1" parent="hjpZ53rHqYIMn-Crg0at-4">
          <mxGeometry x="891" width="64" height="30" as="geometry">
            <mxRectangle width="64" height="30" as="alternateBounds" />
          </mxGeometry>
        </mxCell>
        <mxCell id="hjpZ53rHqYIMn-Crg0at-20" value="age" style="shape=partialRectangle;html=1;whiteSpace=wrap;connectable=0;strokeColor=inherit;overflow=hidden;fillColor=none;top=0;left=0;bottom=0;right=0;pointerEvents=1;" vertex="1" parent="hjpZ53rHqYIMn-Crg0at-4">
          <mxGeometry x="955" width="63" height="30" as="geometry">
            <mxRectangle width="63" height="30" as="alternateBounds" />
          </mxGeometry>
        </mxCell>
        <mxCell id="hjpZ53rHqYIMn-Crg0at-154" value="subscriptionID" style="shape=partialRectangle;html=1;whiteSpace=wrap;connectable=0;strokeColor=inherit;overflow=hidden;fillColor=none;top=0;left=0;bottom=0;right=0;pointerEvents=1;" vertex="1" parent="hjpZ53rHqYIMn-Crg0at-4">
          <mxGeometry x="1018" width="94" height="30" as="geometry">
            <mxRectangle width="94" height="30" as="alternateBounds" />
          </mxGeometry>
        </mxCell>
        <mxCell id="hjpZ53rHqYIMn-Crg0at-61" value="" style="shape=table;startSize=0;container=1;collapsible=0;childLayout=tableLayout;" vertex="1" parent="WIyWlLk6GJQsqaUBKTNV-1">
          <mxGeometry x="-441.2" y="-1623" width="1026" height="33" as="geometry" />
        </mxCell>
        <mxCell id="hjpZ53rHqYIMn-Crg0at-62" value="" style="shape=tableRow;horizontal=0;startSize=0;swimlaneHead=0;swimlaneBody=0;strokeColor=inherit;top=0;left=0;bottom=0;right=0;collapsible=0;dropTarget=0;fillColor=none;points=[[0,0.5],[1,0.5]];portConstraint=eastwest;" vertex="1" parent="hjpZ53rHqYIMn-Crg0at-61">
          <mxGeometry width="1026" height="33" as="geometry" />
        </mxCell>
        <mxCell id="hjpZ53rHqYIMn-Crg0at-63" value="movieID" style="shape=partialRectangle;html=1;whiteSpace=wrap;connectable=0;strokeColor=inherit;overflow=hidden;fillColor=none;top=0;left=0;bottom=0;right=0;pointerEvents=1;fontStyle=4" vertex="1" parent="hjpZ53rHqYIMn-Crg0at-62">
          <mxGeometry width="68" height="33" as="geometry">
            <mxRectangle width="68" height="33" as="alternateBounds" />
          </mxGeometry>
        </mxCell>
        <mxCell id="hjpZ53rHqYIMn-Crg0at-64" value="title" style="shape=partialRectangle;html=1;whiteSpace=wrap;connectable=0;strokeColor=inherit;overflow=hidden;fillColor=none;top=0;left=0;bottom=0;right=0;pointerEvents=1;" vertex="1" parent="hjpZ53rHqYIMn-Crg0at-62">
          <mxGeometry x="68" width="69" height="33" as="geometry">
            <mxRectangle width="69" height="33" as="alternateBounds" />
          </mxGeometry>
        </mxCell>
        <mxCell id="hjpZ53rHqYIMn-Crg0at-65" value="genre" style="shape=partialRectangle;html=1;whiteSpace=wrap;connectable=0;strokeColor=inherit;overflow=hidden;fillColor=none;top=0;left=0;bottom=0;right=0;pointerEvents=1;" vertex="1" parent="hjpZ53rHqYIMn-Crg0at-62">
          <mxGeometry x="137" width="68" height="33" as="geometry">
            <mxRectangle width="68" height="33" as="alternateBounds" />
          </mxGeometry>
        </mxCell>
        <mxCell id="hjpZ53rHqYIMn-Crg0at-66" value="plot" style="shape=partialRectangle;html=1;whiteSpace=wrap;connectable=0;strokeColor=inherit;overflow=hidden;fillColor=none;top=0;left=0;bottom=0;right=0;pointerEvents=1;" vertex="1" parent="hjpZ53rHqYIMn-Crg0at-62">
          <mxGeometry x="205" width="69" height="33" as="geometry">
            <mxRectangle width="69" height="33" as="alternateBounds" />
          </mxGeometry>
        </mxCell>
        <mxCell id="hjpZ53rHqYIMn-Crg0at-67" value="duration" style="shape=partialRectangle;html=1;whiteSpace=wrap;connectable=0;strokeColor=inherit;overflow=hidden;fillColor=none;top=0;left=0;bottom=0;right=0;pointerEvents=1;" vertex="1" parent="hjpZ53rHqYIMn-Crg0at-62">
          <mxGeometry x="274" width="68" height="33" as="geometry">
            <mxRectangle width="68" height="33" as="alternateBounds" />
          </mxGeometry>
        </mxCell>
        <mxCell id="hjpZ53rHqYIMn-Crg0at-68" value="language" style="shape=partialRectangle;html=1;whiteSpace=wrap;connectable=0;strokeColor=inherit;overflow=hidden;fillColor=none;top=0;left=0;bottom=0;right=0;pointerEvents=1;" vertex="1" parent="hjpZ53rHqYIMn-Crg0at-62">
          <mxGeometry x="342" width="68" height="33" as="geometry">
            <mxRectangle width="68" height="33" as="alternateBounds" />
          </mxGeometry>
        </mxCell>
        <mxCell id="hjpZ53rHqYIMn-Crg0at-69" value="country" style="shape=partialRectangle;html=1;whiteSpace=wrap;connectable=0;strokeColor=inherit;overflow=hidden;fillColor=none;top=0;left=0;bottom=0;right=0;pointerEvents=1;" vertex="1" parent="hjpZ53rHqYIMn-Crg0at-62">
          <mxGeometry x="410" width="69" height="33" as="geometry">
            <mxRectangle width="69" height="33" as="alternateBounds" />
          </mxGeometry>
        </mxCell>
        <mxCell id="hjpZ53rHqYIMn-Crg0at-70" value="director" style="shape=partialRectangle;html=1;whiteSpace=wrap;connectable=0;strokeColor=inherit;overflow=hidden;fillColor=none;top=0;left=0;bottom=0;right=0;pointerEvents=1;" vertex="1" parent="hjpZ53rHqYIMn-Crg0at-62">
          <mxGeometry x="479" width="68" height="33" as="geometry">
            <mxRectangle width="68" height="33" as="alternateBounds" />
          </mxGeometry>
        </mxCell>
        <mxCell id="hjpZ53rHqYIMn-Crg0at-71" value="releaseDate" style="shape=partialRectangle;html=1;whiteSpace=wrap;connectable=0;strokeColor=inherit;overflow=hidden;fillColor=none;top=0;left=0;bottom=0;right=0;pointerEvents=1;" vertex="1" parent="hjpZ53rHqYIMn-Crg0at-62">
          <mxGeometry x="547" width="69" height="33" as="geometry">
            <mxRectangle width="69" height="33" as="alternateBounds" />
          </mxGeometry>
        </mxCell>
        <mxCell id="hjpZ53rHqYIMn-Crg0at-72" value="rating" style="shape=partialRectangle;html=1;whiteSpace=wrap;connectable=0;strokeColor=inherit;overflow=hidden;fillColor=none;top=0;left=0;bottom=0;right=0;pointerEvents=1;" vertex="1" parent="hjpZ53rHqYIMn-Crg0at-62">
          <mxGeometry x="616" width="46" height="33" as="geometry">
            <mxRectangle width="46" height="33" as="alternateBounds" />
          </mxGeometry>
        </mxCell>
        <mxCell id="hjpZ53rHqYIMn-Crg0at-73" value="productionCompany" style="shape=partialRectangle;html=1;whiteSpace=wrap;connectable=0;strokeColor=inherit;overflow=hidden;fillColor=none;top=0;left=0;bottom=0;right=0;pointerEvents=1;" vertex="1" parent="hjpZ53rHqYIMn-Crg0at-62">
          <mxGeometry x="662" width="112" height="33" as="geometry">
            <mxRectangle width="112" height="33" as="alternateBounds" />
          </mxGeometry>
        </mxCell>
        <mxCell id="hjpZ53rHqYIMn-Crg0at-74" value="userRatings" style="shape=partialRectangle;html=1;whiteSpace=wrap;connectable=0;strokeColor=inherit;overflow=hidden;fillColor=none;top=0;left=0;bottom=0;right=0;pointerEvents=1;" vertex="1" parent="hjpZ53rHqYIMn-Crg0at-62">
          <mxGeometry x="774" width="67" height="33" as="geometry">
            <mxRectangle width="67" height="33" as="alternateBounds" />
          </mxGeometry>
        </mxCell>
        <mxCell id="hjpZ53rHqYIMn-Crg0at-75" value="lead" style="shape=partialRectangle;html=1;whiteSpace=wrap;connectable=0;strokeColor=inherit;overflow=hidden;fillColor=none;top=0;left=0;bottom=0;right=0;pointerEvents=1;" vertex="1" parent="hjpZ53rHqYIMn-Crg0at-62">
          <mxGeometry x="841" width="61" height="33" as="geometry">
            <mxRectangle width="61" height="33" as="alternateBounds" />
          </mxGeometry>
        </mxCell>
        <mxCell id="hjpZ53rHqYIMn-Crg0at-76" value="supporting" style="shape=partialRectangle;html=1;whiteSpace=wrap;connectable=0;strokeColor=inherit;overflow=hidden;fillColor=none;top=0;left=0;bottom=0;right=0;pointerEvents=1;" vertex="1" parent="hjpZ53rHqYIMn-Crg0at-62">
          <mxGeometry x="902" width="62" height="33" as="geometry">
            <mxRectangle width="62" height="33" as="alternateBounds" />
          </mxGeometry>
        </mxCell>
        <mxCell id="hjpZ53rHqYIMn-Crg0at-77" value="extras" style="shape=partialRectangle;html=1;whiteSpace=wrap;connectable=0;strokeColor=inherit;overflow=hidden;fillColor=none;top=0;left=0;bottom=0;right=0;pointerEvents=1;" vertex="1" parent="hjpZ53rHqYIMn-Crg0at-62">
          <mxGeometry x="964" width="62" height="33" as="geometry">
            <mxRectangle width="62" height="33" as="alternateBounds" />
          </mxGeometry>
        </mxCell>
        <mxCell id="hjpZ53rHqYIMn-Crg0at-78" value="MOVIES" style="text;strokeColor=none;align=center;fillColor=none;html=1;verticalAlign=middle;whiteSpace=wrap;rounded=0;fontStyle=1" vertex="1" parent="WIyWlLk6GJQsqaUBKTNV-1">
          <mxGeometry x="-442.2" y="-1663" width="59" height="40" as="geometry" />
        </mxCell>
        <mxCell id="hjpZ53rHqYIMn-Crg0at-79" value="" style="shape=table;startSize=0;container=1;collapsible=0;childLayout=tableLayout;" vertex="1" parent="WIyWlLk6GJQsqaUBKTNV-1">
          <mxGeometry x="-439.2" y="-1439" width="1086.5740966796875" height="40" as="geometry" />
        </mxCell>
        <mxCell id="hjpZ53rHqYIMn-Crg0at-80" value="" style="shape=tableRow;horizontal=0;startSize=0;swimlaneHead=0;swimlaneBody=0;strokeColor=inherit;top=0;left=0;bottom=0;right=0;collapsible=0;dropTarget=0;fillColor=none;points=[[0,0.5],[1,0.5]];portConstraint=eastwest;" vertex="1" parent="hjpZ53rHqYIMn-Crg0at-79">
          <mxGeometry width="1086.5740966796875" height="40" as="geometry" />
        </mxCell>
        <mxCell id="hjpZ53rHqYIMn-Crg0at-81" value="seriesID" style="shape=partialRectangle;html=1;whiteSpace=wrap;connectable=0;strokeColor=inherit;overflow=hidden;fillColor=none;top=0;left=0;bottom=0;right=0;pointerEvents=1;fontStyle=4" vertex="1" parent="hjpZ53rHqYIMn-Crg0at-80">
          <mxGeometry width="67" height="40" as="geometry">
            <mxRectangle width="67" height="40" as="alternateBounds" />
          </mxGeometry>
        </mxCell>
        <mxCell id="hjpZ53rHqYIMn-Crg0at-82" value="title" style="shape=partialRectangle;html=1;whiteSpace=wrap;connectable=0;strokeColor=inherit;overflow=hidden;fillColor=none;top=0;left=0;bottom=0;right=0;pointerEvents=1;" vertex="1" parent="hjpZ53rHqYIMn-Crg0at-80">
          <mxGeometry x="67" width="66" height="40" as="geometry">
            <mxRectangle width="66" height="40" as="alternateBounds" />
          </mxGeometry>
        </mxCell>
        <mxCell id="hjpZ53rHqYIMn-Crg0at-83" value="genre" style="shape=partialRectangle;html=1;whiteSpace=wrap;connectable=0;strokeColor=inherit;overflow=hidden;fillColor=none;top=0;left=0;bottom=0;right=0;pointerEvents=1;" vertex="1" parent="hjpZ53rHqYIMn-Crg0at-80">
          <mxGeometry x="133" width="67" height="40" as="geometry">
            <mxRectangle width="67" height="40" as="alternateBounds" />
          </mxGeometry>
        </mxCell>
        <mxCell id="hjpZ53rHqYIMn-Crg0at-84" value="plot" style="shape=partialRectangle;html=1;whiteSpace=wrap;connectable=0;strokeColor=inherit;overflow=hidden;fillColor=none;top=0;left=0;bottom=0;right=0;pointerEvents=1;" vertex="1" parent="hjpZ53rHqYIMn-Crg0at-80">
          <mxGeometry x="200" width="66" height="40" as="geometry">
            <mxRectangle width="66" height="40" as="alternateBounds" />
          </mxGeometry>
        </mxCell>
        <mxCell id="hjpZ53rHqYIMn-Crg0at-85" value="duration" style="shape=partialRectangle;html=1;whiteSpace=wrap;connectable=0;strokeColor=inherit;overflow=hidden;fillColor=none;top=0;left=0;bottom=0;right=0;pointerEvents=1;" vertex="1" parent="hjpZ53rHqYIMn-Crg0at-80">
          <mxGeometry x="266" width="67" height="40" as="geometry">
            <mxRectangle width="67" height="40" as="alternateBounds" />
          </mxGeometry>
        </mxCell>
        <mxCell id="hjpZ53rHqYIMn-Crg0at-86" value="language" style="shape=partialRectangle;html=1;whiteSpace=wrap;connectable=0;strokeColor=inherit;overflow=hidden;fillColor=none;top=0;left=0;bottom=0;right=0;pointerEvents=1;" vertex="1" parent="hjpZ53rHqYIMn-Crg0at-80">
          <mxGeometry x="333" width="66" height="40" as="geometry">
            <mxRectangle width="66" height="40" as="alternateBounds" />
          </mxGeometry>
        </mxCell>
        <mxCell id="hjpZ53rHqYIMn-Crg0at-87" value="country" style="shape=partialRectangle;html=1;whiteSpace=wrap;connectable=0;strokeColor=inherit;overflow=hidden;fillColor=none;top=0;left=0;bottom=0;right=0;pointerEvents=1;" vertex="1" parent="hjpZ53rHqYIMn-Crg0at-80">
          <mxGeometry x="399" width="67" height="40" as="geometry">
            <mxRectangle width="67" height="40" as="alternateBounds" />
          </mxGeometry>
        </mxCell>
        <mxCell id="hjpZ53rHqYIMn-Crg0at-88" value="creator" style="shape=partialRectangle;html=1;whiteSpace=wrap;connectable=0;strokeColor=inherit;overflow=hidden;fillColor=none;top=0;left=0;bottom=0;right=0;pointerEvents=1;" vertex="1" parent="hjpZ53rHqYIMn-Crg0at-80">
          <mxGeometry x="466" width="66" height="40" as="geometry">
            <mxRectangle width="66" height="40" as="alternateBounds" />
          </mxGeometry>
        </mxCell>
        <mxCell id="hjpZ53rHqYIMn-Crg0at-89" value="seasons" style="shape=partialRectangle;html=1;whiteSpace=wrap;connectable=0;strokeColor=inherit;overflow=hidden;fillColor=none;top=0;left=0;bottom=0;right=0;pointerEvents=1;" vertex="1" parent="hjpZ53rHqYIMn-Crg0at-80">
          <mxGeometry x="532" width="67" height="40" as="geometry">
            <mxRectangle width="67" height="40" as="alternateBounds" />
          </mxGeometry>
        </mxCell>
        <mxCell id="hjpZ53rHqYIMn-Crg0at-90" value="episodes" style="shape=partialRectangle;html=1;whiteSpace=wrap;connectable=0;strokeColor=inherit;overflow=hidden;fillColor=none;top=0;left=0;bottom=0;right=0;pointerEvents=1;" vertex="1" parent="hjpZ53rHqYIMn-Crg0at-80">
          <mxGeometry x="599" width="66" height="40" as="geometry">
            <mxRectangle width="66" height="40" as="alternateBounds" />
          </mxGeometry>
        </mxCell>
        <mxCell id="hjpZ53rHqYIMn-Crg0at-91" value="rating" style="shape=partialRectangle;html=1;whiteSpace=wrap;connectable=0;strokeColor=inherit;overflow=hidden;fillColor=none;top=0;left=0;bottom=0;right=0;pointerEvents=1;" vertex="1" parent="hjpZ53rHqYIMn-Crg0at-80">
          <mxGeometry x="665" width="41" height="40" as="geometry">
            <mxRectangle width="41" height="40" as="alternateBounds" />
          </mxGeometry>
        </mxCell>
        <mxCell id="hjpZ53rHqYIMn-Crg0at-92" value="productionCompany" style="shape=partialRectangle;html=1;whiteSpace=wrap;connectable=0;strokeColor=inherit;overflow=hidden;fillColor=none;top=0;left=0;bottom=0;right=0;pointerEvents=1;" vertex="1" parent="hjpZ53rHqYIMn-Crg0at-80">
          <mxGeometry x="706" width="115" height="40" as="geometry">
            <mxRectangle width="115" height="40" as="alternateBounds" />
          </mxGeometry>
        </mxCell>
        <mxCell id="hjpZ53rHqYIMn-Crg0at-93" value="userRatings" style="shape=partialRectangle;html=1;whiteSpace=wrap;connectable=0;strokeColor=inherit;overflow=hidden;fillColor=none;top=0;left=0;bottom=0;right=0;pointerEvents=1;" vertex="1" parent="hjpZ53rHqYIMn-Crg0at-80">
          <mxGeometry x="821" width="66" height="40" as="geometry">
            <mxRectangle width="66" height="40" as="alternateBounds" />
          </mxGeometry>
        </mxCell>
        <mxCell id="hjpZ53rHqYIMn-Crg0at-94" value="lead" style="shape=partialRectangle;html=1;whiteSpace=wrap;connectable=0;strokeColor=inherit;overflow=hidden;fillColor=none;top=0;left=0;bottom=0;right=0;pointerEvents=1;" vertex="1" parent="hjpZ53rHqYIMn-Crg0at-80">
          <mxGeometry x="887" width="59" height="40" as="geometry">
            <mxRectangle width="59" height="40" as="alternateBounds" />
          </mxGeometry>
        </mxCell>
        <mxCell id="hjpZ53rHqYIMn-Crg0at-95" value="supporting" style="shape=partialRectangle;html=1;whiteSpace=wrap;connectable=0;strokeColor=inherit;overflow=hidden;fillColor=none;top=0;left=0;bottom=0;right=0;pointerEvents=1;" vertex="1" parent="hjpZ53rHqYIMn-Crg0at-80">
          <mxGeometry x="946" width="65" height="40" as="geometry">
            <mxRectangle width="65" height="40" as="alternateBounds" />
          </mxGeometry>
        </mxCell>
        <mxCell id="hjpZ53rHqYIMn-Crg0at-96" value="recurring" style="shape=partialRectangle;html=1;whiteSpace=wrap;connectable=0;strokeColor=inherit;overflow=hidden;fillColor=none;top=0;left=0;bottom=0;right=0;pointerEvents=1;" vertex="1" parent="hjpZ53rHqYIMn-Crg0at-80">
          <mxGeometry x="1011" width="76" height="40" as="geometry">
            <mxRectangle width="76" height="40" as="alternateBounds" />
          </mxGeometry>
        </mxCell>
        <mxCell id="hjpZ53rHqYIMn-Crg0at-97" value="SERIES" style="text;strokeColor=none;align=center;fillColor=none;html=1;verticalAlign=middle;whiteSpace=wrap;rounded=0;fontStyle=1" vertex="1" parent="WIyWlLk6GJQsqaUBKTNV-1">
          <mxGeometry x="-436.2" y="-1472" width="59" height="40" as="geometry" />
        </mxCell>
        <mxCell id="hjpZ53rHqYIMn-Crg0at-98" value="" style="shape=table;startSize=0;container=1;collapsible=0;childLayout=tableLayout;" vertex="1" parent="WIyWlLk6GJQsqaUBKTNV-1">
          <mxGeometry x="-441.2" y="-1270" width="389" height="40" as="geometry" />
        </mxCell>
        <mxCell id="hjpZ53rHqYIMn-Crg0at-99" value="" style="shape=tableRow;horizontal=0;startSize=0;swimlaneHead=0;swimlaneBody=0;strokeColor=inherit;top=0;left=0;bottom=0;right=0;collapsible=0;dropTarget=0;fillColor=none;points=[[0,0.5],[1,0.5]];portConstraint=eastwest;" vertex="1" parent="hjpZ53rHqYIMn-Crg0at-98">
          <mxGeometry width="389" height="40" as="geometry" />
        </mxCell>
        <mxCell id="hjpZ53rHqYIMn-Crg0at-100" value="actorID" style="shape=partialRectangle;html=1;whiteSpace=wrap;connectable=0;strokeColor=inherit;overflow=hidden;fillColor=none;top=0;left=0;bottom=0;right=0;pointerEvents=1;fontStyle=4" vertex="1" parent="hjpZ53rHqYIMn-Crg0at-99">
          <mxGeometry width="65" height="40" as="geometry">
            <mxRectangle width="65" height="40" as="alternateBounds" />
          </mxGeometry>
        </mxCell>
        <mxCell id="hjpZ53rHqYIMn-Crg0at-101" value="firstName" style="shape=partialRectangle;html=1;whiteSpace=wrap;connectable=0;strokeColor=inherit;overflow=hidden;fillColor=none;top=0;left=0;bottom=0;right=0;pointerEvents=1;" vertex="1" parent="hjpZ53rHqYIMn-Crg0at-99">
          <mxGeometry x="65" width="65" height="40" as="geometry">
            <mxRectangle width="65" height="40" as="alternateBounds" />
          </mxGeometry>
        </mxCell>
        <mxCell id="hjpZ53rHqYIMn-Crg0at-102" value="lastName" style="shape=partialRectangle;html=1;whiteSpace=wrap;connectable=0;strokeColor=inherit;overflow=hidden;fillColor=none;top=0;left=0;bottom=0;right=0;pointerEvents=1;" vertex="1" parent="hjpZ53rHqYIMn-Crg0at-99">
          <mxGeometry x="130" width="64" height="40" as="geometry">
            <mxRectangle width="64" height="40" as="alternateBounds" />
          </mxGeometry>
        </mxCell>
        <mxCell id="hjpZ53rHqYIMn-Crg0at-103" value="gender" style="shape=partialRectangle;html=1;whiteSpace=wrap;connectable=0;strokeColor=inherit;overflow=hidden;fillColor=none;top=0;left=0;bottom=0;right=0;pointerEvents=1;" vertex="1" parent="hjpZ53rHqYIMn-Crg0at-99">
          <mxGeometry x="194" width="65" height="40" as="geometry">
            <mxRectangle width="65" height="40" as="alternateBounds" />
          </mxGeometry>
        </mxCell>
        <mxCell id="hjpZ53rHqYIMn-Crg0at-104" value="dateOfBirth" style="shape=partialRectangle;html=1;whiteSpace=wrap;connectable=0;strokeColor=inherit;overflow=hidden;fillColor=none;top=0;left=0;bottom=0;right=0;pointerEvents=1;" vertex="1" parent="hjpZ53rHqYIMn-Crg0at-99">
          <mxGeometry x="259" width="65" height="40" as="geometry">
            <mxRectangle width="65" height="40" as="alternateBounds" />
          </mxGeometry>
        </mxCell>
        <mxCell id="hjpZ53rHqYIMn-Crg0at-112" value="age" style="shape=partialRectangle;html=1;whiteSpace=wrap;connectable=0;strokeColor=inherit;overflow=hidden;fillColor=none;top=0;left=0;bottom=0;right=0;pointerEvents=1;" vertex="1" parent="hjpZ53rHqYIMn-Crg0at-99">
          <mxGeometry x="324" width="65" height="40" as="geometry">
            <mxRectangle width="65" height="40" as="alternateBounds" />
          </mxGeometry>
        </mxCell>
        <mxCell id="hjpZ53rHqYIMn-Crg0at-105" value="ACTORS" style="text;strokeColor=none;align=center;fillColor=none;html=1;verticalAlign=middle;whiteSpace=wrap;rounded=0;fontStyle=1" vertex="1" parent="WIyWlLk6GJQsqaUBKTNV-1">
          <mxGeometry x="-437.2" y="-1302" width="59" height="40" as="geometry" />
        </mxCell>
        <mxCell id="hjpZ53rHqYIMn-Crg0at-113" value="" style="shape=table;startSize=0;container=1;collapsible=0;childLayout=tableLayout;" vertex="1" parent="WIyWlLk6GJQsqaUBKTNV-1">
          <mxGeometry x="-442.2" y="-1110" width="495" height="40" as="geometry" />
        </mxCell>
        <mxCell id="hjpZ53rHqYIMn-Crg0at-114" value="" style="shape=tableRow;horizontal=0;startSize=0;swimlaneHead=0;swimlaneBody=0;strokeColor=inherit;top=0;left=0;bottom=0;right=0;collapsible=0;dropTarget=0;fillColor=none;points=[[0,0.5],[1,0.5]];portConstraint=eastwest;" vertex="1" parent="hjpZ53rHqYIMn-Crg0at-113">
          <mxGeometry width="495" height="40" as="geometry" />
        </mxCell>
        <mxCell id="hjpZ53rHqYIMn-Crg0at-115" value="companyID" style="shape=partialRectangle;html=1;whiteSpace=wrap;connectable=0;strokeColor=inherit;overflow=hidden;fillColor=none;top=0;left=0;bottom=0;right=0;pointerEvents=1;fontStyle=4" vertex="1" parent="hjpZ53rHqYIMn-Crg0at-114">
          <mxGeometry width="92" height="40" as="geometry">
            <mxRectangle width="92" height="40" as="alternateBounds" />
          </mxGeometry>
        </mxCell>
        <mxCell id="hjpZ53rHqYIMn-Crg0at-116" value="name" style="shape=partialRectangle;html=1;whiteSpace=wrap;connectable=0;strokeColor=inherit;overflow=hidden;fillColor=none;top=0;left=0;bottom=0;right=0;pointerEvents=1;" vertex="1" parent="hjpZ53rHqYIMn-Crg0at-114">
          <mxGeometry x="92" width="73" height="40" as="geometry">
            <mxRectangle width="73" height="40" as="alternateBounds" />
          </mxGeometry>
        </mxCell>
        <mxCell id="hjpZ53rHqYIMn-Crg0at-117" value="CEO" style="shape=partialRectangle;html=1;whiteSpace=wrap;connectable=0;strokeColor=inherit;overflow=hidden;fillColor=none;top=0;left=0;bottom=0;right=0;pointerEvents=1;" vertex="1" parent="hjpZ53rHqYIMn-Crg0at-114">
          <mxGeometry x="165" width="83" height="40" as="geometry">
            <mxRectangle width="83" height="40" as="alternateBounds" />
          </mxGeometry>
        </mxCell>
        <mxCell id="hjpZ53rHqYIMn-Crg0at-118" value="description" style="shape=partialRectangle;html=1;whiteSpace=wrap;connectable=0;strokeColor=inherit;overflow=hidden;fillColor=none;top=0;left=0;bottom=0;right=0;pointerEvents=1;" vertex="1" parent="hjpZ53rHqYIMn-Crg0at-114">
          <mxGeometry x="248" width="82" height="40" as="geometry">
            <mxRectangle width="82" height="40" as="alternateBounds" />
          </mxGeometry>
        </mxCell>
        <mxCell id="hjpZ53rHqYIMn-Crg0at-119" value="headquarters" style="shape=partialRectangle;html=1;whiteSpace=wrap;connectable=0;strokeColor=inherit;overflow=hidden;fillColor=none;top=0;left=0;bottom=0;right=0;pointerEvents=1;" vertex="1" parent="hjpZ53rHqYIMn-Crg0at-114">
          <mxGeometry x="330" width="83" height="40" as="geometry">
            <mxRectangle width="83" height="40" as="alternateBounds" />
          </mxGeometry>
        </mxCell>
        <mxCell id="hjpZ53rHqYIMn-Crg0at-120" value="foundingDate" style="shape=partialRectangle;html=1;whiteSpace=wrap;connectable=0;strokeColor=inherit;overflow=hidden;fillColor=none;top=0;left=0;bottom=0;right=0;pointerEvents=1;" vertex="1" parent="hjpZ53rHqYIMn-Crg0at-114">
          <mxGeometry x="413" width="82" height="40" as="geometry">
            <mxRectangle width="82" height="40" as="alternateBounds" />
          </mxGeometry>
        </mxCell>
        <mxCell id="hjpZ53rHqYIMn-Crg0at-121" value="PRODUCTION_COMPANIES" style="text;strokeColor=none;align=center;fillColor=none;html=1;verticalAlign=middle;whiteSpace=wrap;rounded=0;fontStyle=1" vertex="1" parent="WIyWlLk6GJQsqaUBKTNV-1">
          <mxGeometry x="-391.2" y="-1145" width="59" height="40" as="geometry" />
        </mxCell>
        <mxCell id="hjpZ53rHqYIMn-Crg0at-122" value="" style="shape=table;startSize=0;container=1;collapsible=0;childLayout=tableLayout;" vertex="1" parent="WIyWlLk6GJQsqaUBKTNV-1">
          <mxGeometry x="-441.2" y="-950" width="703" height="40" as="geometry" />
        </mxCell>
        <mxCell id="hjpZ53rHqYIMn-Crg0at-123" value="" style="shape=tableRow;horizontal=0;startSize=0;swimlaneHead=0;swimlaneBody=0;strokeColor=inherit;top=0;left=0;bottom=0;right=0;collapsible=0;dropTarget=0;fillColor=none;points=[[0,0.5],[1,0.5]];portConstraint=eastwest;" vertex="1" parent="hjpZ53rHqYIMn-Crg0at-122">
          <mxGeometry width="703" height="40" as="geometry" />
        </mxCell>
        <mxCell id="hjpZ53rHqYIMn-Crg0at-124" value="employeeID" style="shape=partialRectangle;html=1;whiteSpace=wrap;connectable=0;strokeColor=inherit;overflow=hidden;fillColor=none;top=0;left=0;bottom=0;right=0;pointerEvents=1;fontStyle=4" vertex="1" parent="hjpZ53rHqYIMn-Crg0at-123">
          <mxGeometry width="78" height="40" as="geometry">
            <mxRectangle width="78" height="40" as="alternateBounds" />
          </mxGeometry>
        </mxCell>
        <mxCell id="hjpZ53rHqYIMn-Crg0at-125" value="name" style="shape=partialRectangle;html=1;whiteSpace=wrap;connectable=0;strokeColor=inherit;overflow=hidden;fillColor=none;top=0;left=0;bottom=0;right=0;pointerEvents=1;" vertex="1" parent="hjpZ53rHqYIMn-Crg0at-123">
          <mxGeometry x="78" width="79" height="40" as="geometry">
            <mxRectangle width="79" height="40" as="alternateBounds" />
          </mxGeometry>
        </mxCell>
        <mxCell id="hjpZ53rHqYIMn-Crg0at-126" value="gender" style="shape=partialRectangle;html=1;whiteSpace=wrap;connectable=0;strokeColor=inherit;overflow=hidden;fillColor=none;top=0;left=0;bottom=0;right=0;pointerEvents=1;" vertex="1" parent="hjpZ53rHqYIMn-Crg0at-123">
          <mxGeometry x="157" width="78" height="40" as="geometry">
            <mxRectangle width="78" height="40" as="alternateBounds" />
          </mxGeometry>
        </mxCell>
        <mxCell id="hjpZ53rHqYIMn-Crg0at-127" value="salary" style="shape=partialRectangle;html=1;whiteSpace=wrap;connectable=0;strokeColor=inherit;overflow=hidden;fillColor=none;top=0;left=0;bottom=0;right=0;pointerEvents=1;" vertex="1" parent="hjpZ53rHqYIMn-Crg0at-123">
          <mxGeometry x="235" width="77" height="40" as="geometry">
            <mxRectangle width="77" height="40" as="alternateBounds" />
          </mxGeometry>
        </mxCell>
        <mxCell id="hjpZ53rHqYIMn-Crg0at-128" value="state" style="shape=partialRectangle;html=1;whiteSpace=wrap;connectable=0;strokeColor=inherit;overflow=hidden;fillColor=none;top=0;left=0;bottom=0;right=0;pointerEvents=1;" vertex="1" parent="hjpZ53rHqYIMn-Crg0at-123">
          <mxGeometry x="312" width="78" height="40" as="geometry">
            <mxRectangle width="78" height="40" as="alternateBounds" />
          </mxGeometry>
        </mxCell>
        <mxCell id="hjpZ53rHqYIMn-Crg0at-129" value="city" style="shape=partialRectangle;html=1;whiteSpace=wrap;connectable=0;strokeColor=inherit;overflow=hidden;fillColor=none;top=0;left=0;bottom=0;right=0;pointerEvents=1;" vertex="1" parent="hjpZ53rHqYIMn-Crg0at-123">
          <mxGeometry x="390" width="79" height="40" as="geometry">
            <mxRectangle width="79" height="40" as="alternateBounds" />
          </mxGeometry>
        </mxCell>
        <mxCell id="hjpZ53rHqYIMn-Crg0at-130" value="postalCode" style="shape=partialRectangle;html=1;whiteSpace=wrap;connectable=0;strokeColor=inherit;overflow=hidden;fillColor=none;top=0;left=0;bottom=0;right=0;pointerEvents=1;" vertex="1" parent="hjpZ53rHqYIMn-Crg0at-123">
          <mxGeometry x="469" width="78" height="40" as="geometry">
            <mxRectangle width="78" height="40" as="alternateBounds" />
          </mxGeometry>
        </mxCell>
        <mxCell id="hjpZ53rHqYIMn-Crg0at-132" value="jobType" style="shape=partialRectangle;html=1;whiteSpace=wrap;connectable=0;strokeColor=inherit;overflow=hidden;fillColor=none;top=0;left=0;bottom=0;right=0;pointerEvents=1;" vertex="1" parent="hjpZ53rHqYIMn-Crg0at-123">
          <mxGeometry x="547" width="78" height="40" as="geometry">
            <mxRectangle width="78" height="40" as="alternateBounds" />
          </mxGeometry>
        </mxCell>
        <mxCell id="hjpZ53rHqYIMn-Crg0at-162" value="companyID" style="shape=partialRectangle;html=1;whiteSpace=wrap;connectable=0;strokeColor=inherit;overflow=hidden;fillColor=none;top=0;left=0;bottom=0;right=0;pointerEvents=1;" vertex="1" parent="hjpZ53rHqYIMn-Crg0at-123">
          <mxGeometry x="625" width="78" height="40" as="geometry">
            <mxRectangle width="78" height="40" as="alternateBounds" />
          </mxGeometry>
        </mxCell>
        <mxCell id="hjpZ53rHqYIMn-Crg0at-131" value="EMPLOYEES" style="text;strokeColor=none;align=center;fillColor=none;html=1;verticalAlign=middle;whiteSpace=wrap;rounded=0;fontStyle=1" vertex="1" parent="WIyWlLk6GJQsqaUBKTNV-1">
          <mxGeometry x="-430.2" y="-982" width="59" height="40" as="geometry" />
        </mxCell>
        <mxCell id="hjpZ53rHqYIMn-Crg0at-133" value="" style="shape=table;startSize=0;container=1;collapsible=0;childLayout=tableLayout;" vertex="1" parent="WIyWlLk6GJQsqaUBKTNV-1">
          <mxGeometry x="-441.2" y="-751" width="378" height="40" as="geometry" />
        </mxCell>
        <mxCell id="hjpZ53rHqYIMn-Crg0at-134" value="" style="shape=tableRow;horizontal=0;startSize=0;swimlaneHead=0;swimlaneBody=0;strokeColor=inherit;top=0;left=0;bottom=0;right=0;collapsible=0;dropTarget=0;fillColor=none;points=[[0,0.5],[1,0.5]];portConstraint=eastwest;" vertex="1" parent="hjpZ53rHqYIMn-Crg0at-133">
          <mxGeometry width="378" height="40" as="geometry" />
        </mxCell>
        <mxCell id="hjpZ53rHqYIMn-Crg0at-135" value="subscriptionID" style="shape=partialRectangle;html=1;whiteSpace=wrap;connectable=0;strokeColor=inherit;overflow=hidden;fillColor=none;top=0;left=0;bottom=0;right=0;pointerEvents=1;fontStyle=4" vertex="1" parent="hjpZ53rHqYIMn-Crg0at-134">
          <mxGeometry width="95" height="40" as="geometry">
            <mxRectangle width="95" height="40" as="alternateBounds" />
          </mxGeometry>
        </mxCell>
        <mxCell id="hjpZ53rHqYIMn-Crg0at-136" value="startDate" style="shape=partialRectangle;html=1;whiteSpace=wrap;connectable=0;strokeColor=inherit;overflow=hidden;fillColor=none;top=0;left=0;bottom=0;right=0;pointerEvents=1;" vertex="1" parent="hjpZ53rHqYIMn-Crg0at-134">
          <mxGeometry x="95" width="94" height="40" as="geometry">
            <mxRectangle width="94" height="40" as="alternateBounds" />
          </mxGeometry>
        </mxCell>
        <mxCell id="hjpZ53rHqYIMn-Crg0at-137" value="endDate" style="shape=partialRectangle;html=1;whiteSpace=wrap;connectable=0;strokeColor=inherit;overflow=hidden;fillColor=none;top=0;left=0;bottom=0;right=0;pointerEvents=1;" vertex="1" parent="hjpZ53rHqYIMn-Crg0at-134">
          <mxGeometry x="189" width="95" height="40" as="geometry">
            <mxRectangle width="95" height="40" as="alternateBounds" />
          </mxGeometry>
        </mxCell>
        <mxCell id="hjpZ53rHqYIMn-Crg0at-138" value="paymentMethod" style="shape=partialRectangle;html=1;whiteSpace=wrap;connectable=0;strokeColor=inherit;overflow=hidden;fillColor=none;top=0;left=0;bottom=0;right=0;pointerEvents=1;" vertex="1" parent="hjpZ53rHqYIMn-Crg0at-134">
          <mxGeometry x="284" width="94" height="40" as="geometry">
            <mxRectangle width="94" height="40" as="alternateBounds" />
          </mxGeometry>
        </mxCell>
        <mxCell id="hjpZ53rHqYIMn-Crg0at-139" value="FAVOURITES" style="text;strokeColor=none;align=center;fillColor=none;html=1;verticalAlign=middle;whiteSpace=wrap;rounded=0;fontStyle=1" vertex="1" parent="WIyWlLk6GJQsqaUBKTNV-1">
          <mxGeometry x="-426.2" y="-614" width="59" height="40" as="geometry" />
        </mxCell>
        <mxCell id="hjpZ53rHqYIMn-Crg0at-141" value="" style="shape=table;startSize=0;container=1;collapsible=0;childLayout=tableLayout;fontStyle=4" vertex="1" parent="WIyWlLk6GJQsqaUBKTNV-1">
          <mxGeometry x="-437.2" y="-578" width="211" height="40" as="geometry" />
        </mxCell>
        <mxCell id="hjpZ53rHqYIMn-Crg0at-142" value="" style="shape=tableRow;horizontal=0;startSize=0;swimlaneHead=0;swimlaneBody=0;strokeColor=inherit;top=0;left=0;bottom=0;right=0;collapsible=0;dropTarget=0;fillColor=none;points=[[0,0.5],[1,0.5]];portConstraint=eastwest;" vertex="1" parent="hjpZ53rHqYIMn-Crg0at-141">
          <mxGeometry width="211" height="40" as="geometry" />
        </mxCell>
        <mxCell id="hjpZ53rHqYIMn-Crg0at-143" value="userID" style="shape=partialRectangle;html=1;whiteSpace=wrap;connectable=0;strokeColor=inherit;overflow=hidden;fillColor=none;top=0;left=0;bottom=0;right=0;pointerEvents=1;fontStyle=4" vertex="1" parent="hjpZ53rHqYIMn-Crg0at-142">
          <mxGeometry width="104" height="40" as="geometry">
            <mxRectangle width="104" height="40" as="alternateBounds" />
          </mxGeometry>
        </mxCell>
        <mxCell id="hjpZ53rHqYIMn-Crg0at-144" value="movieID/seriesID" style="shape=partialRectangle;html=1;whiteSpace=wrap;connectable=0;strokeColor=inherit;overflow=hidden;fillColor=none;top=0;left=0;bottom=0;right=0;pointerEvents=1;fontStyle=4" vertex="1" parent="hjpZ53rHqYIMn-Crg0at-142">
          <mxGeometry x="104" width="107" height="40" as="geometry">
            <mxRectangle width="107" height="40" as="alternateBounds" />
          </mxGeometry>
        </mxCell>
        <mxCell id="hjpZ53rHqYIMn-Crg0at-145" value="SUBSCRIPTION" style="text;strokeColor=none;align=center;fillColor=none;html=1;verticalAlign=middle;whiteSpace=wrap;rounded=0;fontStyle=1" vertex="1" parent="WIyWlLk6GJQsqaUBKTNV-1">
          <mxGeometry x="-426.2" y="-787" width="59" height="40" as="geometry" />
        </mxCell>
        <mxCell id="hjpZ53rHqYIMn-Crg0at-160" style="edgeStyle=orthogonalEdgeStyle;rounded=0;orthogonalLoop=1;jettySize=auto;html=1;entryX=0;entryY=0.5;entryDx=0;entryDy=0;" edge="1" parent="WIyWlLk6GJQsqaUBKTNV-1" source="hjpZ53rHqYIMn-Crg0at-146" target="hjpZ53rHqYIMn-Crg0at-80">
          <mxGeometry relative="1" as="geometry">
            <Array as="points">
              <mxPoint x="-301.2" y="-316" />
              <mxPoint x="-637.2" y="-316" />
              <mxPoint x="-637.2" y="-1419" />
            </Array>
          </mxGeometry>
        </mxCell>
        <mxCell id="hjpZ53rHqYIMn-Crg0at-146" value="" style="shape=table;startSize=0;container=1;collapsible=0;childLayout=tableLayout;fontStyle=4" vertex="1" parent="WIyWlLk6GJQsqaUBKTNV-1">
          <mxGeometry x="-450.2" y="-430" width="388" height="40" as="geometry" />
        </mxCell>
        <mxCell id="hjpZ53rHqYIMn-Crg0at-147" value="" style="shape=tableRow;horizontal=0;startSize=0;swimlaneHead=0;swimlaneBody=0;strokeColor=inherit;top=0;left=0;bottom=0;right=0;collapsible=0;dropTarget=0;fillColor=none;points=[[0,0.5],[1,0.5]];portConstraint=eastwest;" vertex="1" parent="hjpZ53rHqYIMn-Crg0at-146">
          <mxGeometry width="388" height="40" as="geometry" />
        </mxCell>
        <mxCell id="hjpZ53rHqYIMn-Crg0at-148" value="actorID" style="shape=partialRectangle;html=1;whiteSpace=wrap;connectable=0;strokeColor=inherit;overflow=hidden;fillColor=none;top=0;left=0;bottom=0;right=0;pointerEvents=1;fontStyle=0" vertex="1" parent="hjpZ53rHqYIMn-Crg0at-147">
          <mxGeometry width="97" height="40" as="geometry">
            <mxRectangle width="97" height="40" as="alternateBounds" />
          </mxGeometry>
        </mxCell>
        <mxCell id="hjpZ53rHqYIMn-Crg0at-149" value="movieID/seriesID" style="shape=partialRectangle;html=1;whiteSpace=wrap;connectable=0;strokeColor=inherit;overflow=hidden;fillColor=none;top=0;left=0;bottom=0;right=0;pointerEvents=1;fontStyle=0" vertex="1" parent="hjpZ53rHqYIMn-Crg0at-147">
          <mxGeometry x="97" width="97" height="40" as="geometry">
            <mxRectangle width="97" height="40" as="alternateBounds" />
          </mxGeometry>
        </mxCell>
        <mxCell id="hjpZ53rHqYIMn-Crg0at-150" value="role" style="shape=partialRectangle;html=1;whiteSpace=wrap;connectable=0;strokeColor=inherit;overflow=hidden;fillColor=none;top=0;left=0;bottom=0;right=0;pointerEvents=1;" vertex="1" parent="hjpZ53rHqYIMn-Crg0at-147">
          <mxGeometry x="194" width="97" height="40" as="geometry">
            <mxRectangle width="97" height="40" as="alternateBounds" />
          </mxGeometry>
        </mxCell>
        <mxCell id="hjpZ53rHqYIMn-Crg0at-151" value="billingOrder" style="shape=partialRectangle;html=1;whiteSpace=wrap;connectable=0;strokeColor=inherit;overflow=hidden;fillColor=none;top=0;left=0;bottom=0;right=0;pointerEvents=1;fontStyle=4" vertex="1" parent="hjpZ53rHqYIMn-Crg0at-147">
          <mxGeometry x="291" width="97" height="40" as="geometry">
            <mxRectangle width="97" height="40" as="alternateBounds" />
          </mxGeometry>
        </mxCell>
        <mxCell id="hjpZ53rHqYIMn-Crg0at-152" value="CASTINGS" style="text;strokeColor=none;align=center;fillColor=none;html=1;verticalAlign=middle;whiteSpace=wrap;rounded=0;fontStyle=1" vertex="1" parent="WIyWlLk6GJQsqaUBKTNV-1">
          <mxGeometry x="-439.2" y="-461" width="59" height="40" as="geometry" />
        </mxCell>
        <mxCell id="hjpZ53rHqYIMn-Crg0at-155" style="edgeStyle=orthogonalEdgeStyle;rounded=0;orthogonalLoop=1;jettySize=auto;html=1;entryX=0.036;entryY=1.013;entryDx=0;entryDy=0;entryPerimeter=0;" edge="1" parent="WIyWlLk6GJQsqaUBKTNV-1">
          <mxGeometry relative="1" as="geometry">
            <mxPoint x="666.1899999999995" y="-1800.0000000000002" as="sourcePoint" />
            <mxPoint x="-391.20200000000006" y="-710.48" as="targetPoint" />
            <Array as="points">
              <mxPoint x="647.8" y="-1800" />
              <mxPoint x="647.8" y="-1713" />
              <mxPoint x="727.8" y="-1713" />
              <mxPoint x="727.8" y="-669" />
              <mxPoint x="-391.2" y="-669" />
            </Array>
          </mxGeometry>
        </mxCell>
        <mxCell id="hjpZ53rHqYIMn-Crg0at-156" style="edgeStyle=orthogonalEdgeStyle;rounded=0;orthogonalLoop=1;jettySize=auto;html=1;entryX=0.032;entryY=1.032;entryDx=0;entryDy=0;entryPerimeter=0;" edge="1" parent="WIyWlLk6GJQsqaUBKTNV-1" source="hjpZ53rHqYIMn-Crg0at-142" target="hjpZ53rHqYIMn-Crg0at-4">
          <mxGeometry relative="1" as="geometry">
            <mxPoint x="-396.29522356305796" y="-1792.3809814453125" as="targetPoint" />
            <Array as="points">
              <mxPoint x="-378.2" y="-498" />
              <mxPoint x="-569.2" y="-498" />
              <mxPoint x="-569.2" y="-1773" />
              <mxPoint x="-399.2" y="-1773" />
            </Array>
          </mxGeometry>
        </mxCell>
        <mxCell id="hjpZ53rHqYIMn-Crg0at-157" style="edgeStyle=orthogonalEdgeStyle;rounded=0;orthogonalLoop=1;jettySize=auto;html=1;entryX=0;entryY=0.5;entryDx=0;entryDy=0;" edge="1" parent="WIyWlLk6GJQsqaUBKTNV-1" source="hjpZ53rHqYIMn-Crg0at-142" target="hjpZ53rHqYIMn-Crg0at-80">
          <mxGeometry relative="1" as="geometry">
            <Array as="points">
              <mxPoint x="-279.2" y="-619" />
              <mxPoint x="-528.2" y="-619" />
              <mxPoint x="-528.2" y="-1419" />
            </Array>
          </mxGeometry>
        </mxCell>
        <mxCell id="hjpZ53rHqYIMn-Crg0at-158" style="edgeStyle=orthogonalEdgeStyle;rounded=0;orthogonalLoop=1;jettySize=auto;html=1;entryX=0;entryY=0.5;entryDx=0;entryDy=0;" edge="1" parent="WIyWlLk6GJQsqaUBKTNV-1" source="hjpZ53rHqYIMn-Crg0at-142" target="hjpZ53rHqYIMn-Crg0at-62">
          <mxGeometry relative="1" as="geometry">
            <Array as="points">
              <mxPoint x="-280.2" y="-618" />
              <mxPoint x="-527.2" y="-618" />
              <mxPoint x="-527.2" y="-1606" />
            </Array>
          </mxGeometry>
        </mxCell>
        <mxCell id="hjpZ53rHqYIMn-Crg0at-159" style="edgeStyle=orthogonalEdgeStyle;rounded=0;orthogonalLoop=1;jettySize=auto;html=1;entryX=0.106;entryY=1.025;entryDx=0;entryDy=0;entryPerimeter=0;exitX=0;exitY=0.5;exitDx=0;exitDy=0;" edge="1" parent="WIyWlLk6GJQsqaUBKTNV-1" source="hjpZ53rHqYIMn-Crg0at-147" target="hjpZ53rHqYIMn-Crg0at-99">
          <mxGeometry relative="1" as="geometry">
            <mxPoint x="-563.2" y="-464" as="sourcePoint" />
            <Array as="points">
              <mxPoint x="-460.2" y="-410" />
              <mxPoint x="-460.2" y="-460" />
              <mxPoint x="-211.2" y="-460" />
              <mxPoint x="-211.2" y="-633" />
              <mxPoint x="-510.2" y="-633" />
              <mxPoint x="-510.2" y="-1207" />
              <mxPoint x="-400.2" y="-1207" />
            </Array>
          </mxGeometry>
        </mxCell>
        <mxCell id="hjpZ53rHqYIMn-Crg0at-161" style="edgeStyle=orthogonalEdgeStyle;rounded=0;orthogonalLoop=1;jettySize=auto;html=1;entryX=0;entryY=0.5;entryDx=0;entryDy=0;" edge="1" parent="WIyWlLk6GJQsqaUBKTNV-1" source="hjpZ53rHqYIMn-Crg0at-147" target="hjpZ53rHqYIMn-Crg0at-62">
          <mxGeometry relative="1" as="geometry">
            <Array as="points">
              <mxPoint x="-299.2" y="-316" />
              <mxPoint x="-637.2" y="-316" />
              <mxPoint x="-637.2" y="-1606" />
            </Array>
          </mxGeometry>
        </mxCell>
        <mxCell id="hjpZ53rHqYIMn-Crg0at-163" style="edgeStyle=orthogonalEdgeStyle;rounded=0;orthogonalLoop=1;jettySize=auto;html=1;entryX=0.073;entryY=1.017;entryDx=0;entryDy=0;entryPerimeter=0;" edge="1" parent="WIyWlLk6GJQsqaUBKTNV-1" source="hjpZ53rHqYIMn-Crg0at-123" target="hjpZ53rHqYIMn-Crg0at-114">
          <mxGeometry relative="1" as="geometry">
            <Array as="points">
              <mxPoint x="220.8" y="-1010" />
              <mxPoint x="-406.2" y="-1010" />
            </Array>
          </mxGeometry>
        </mxCell>
        <mxCell id="hjpZ53rHqYIMn-Crg0at-168" value="" style="shape=table;startSize=0;container=1;collapsible=0;childLayout=tableLayout;" vertex="1" parent="WIyWlLk6GJQsqaUBKTNV-1">
          <mxGeometry x="-441.2" y="-230" width="176.2" height="40" as="geometry" />
        </mxCell>
        <mxCell id="hjpZ53rHqYIMn-Crg0at-169" value="" style="shape=tableRow;horizontal=0;startSize=0;swimlaneHead=0;swimlaneBody=0;strokeColor=inherit;top=0;left=0;bottom=0;right=0;collapsible=0;dropTarget=0;fillColor=none;points=[[0,0.5],[1,0.5]];portConstraint=eastwest;" vertex="1" parent="hjpZ53rHqYIMn-Crg0at-168">
          <mxGeometry width="176.2" height="40" as="geometry" />
        </mxCell>
        <mxCell id="hjpZ53rHqYIMn-Crg0at-170" value="userID" style="shape=partialRectangle;html=1;whiteSpace=wrap;connectable=0;strokeColor=inherit;overflow=hidden;fillColor=none;top=0;left=0;bottom=0;right=0;pointerEvents=1;fontStyle=4" vertex="1" parent="hjpZ53rHqYIMn-Crg0at-169">
          <mxGeometry width="89" height="40" as="geometry">
            <mxRectangle width="89" height="40" as="alternateBounds" />
          </mxGeometry>
        </mxCell>
        <mxCell id="hjpZ53rHqYIMn-Crg0at-171" value="employeeID" style="shape=partialRectangle;html=1;whiteSpace=wrap;connectable=0;strokeColor=inherit;overflow=hidden;fillColor=none;top=0;left=0;bottom=0;right=0;pointerEvents=1;fontStyle=4" vertex="1" parent="hjpZ53rHqYIMn-Crg0at-169">
          <mxGeometry x="89" width="87" height="40" as="geometry">
            <mxRectangle width="87" height="40" as="alternateBounds" />
          </mxGeometry>
        </mxCell>
        <mxCell id="hjpZ53rHqYIMn-Crg0at-172" value="HANDLE" style="text;strokeColor=none;align=center;fillColor=none;html=1;verticalAlign=middle;whiteSpace=wrap;rounded=0;fontStyle=1" vertex="1" parent="WIyWlLk6GJQsqaUBKTNV-1">
          <mxGeometry x="-439.2" y="-263" width="59" height="40" as="geometry" />
        </mxCell>
        <mxCell id="hjpZ53rHqYIMn-Crg0at-173" style="edgeStyle=orthogonalEdgeStyle;rounded=0;orthogonalLoop=1;jettySize=auto;html=1;entryX=0;entryY=0.75;entryDx=0;entryDy=0;" edge="1" parent="WIyWlLk6GJQsqaUBKTNV-1">
          <mxGeometry relative="1" as="geometry">
            <mxPoint x="-437.20000000000005" y="-202.409090909091" as="sourcePoint" />
            <mxPoint x="-435.20000000000005" y="-1816.9999999999998" as="targetPoint" />
            <Array as="points">
              <mxPoint x="-685" y="-202.5" />
              <mxPoint x="-685" y="-1816.5" />
            </Array>
          </mxGeometry>
        </mxCell>
        <mxCell id="hjpZ53rHqYIMn-Crg0at-174" style="edgeStyle=orthogonalEdgeStyle;rounded=0;orthogonalLoop=1;jettySize=auto;html=1;entryX=0.083;entryY=0.995;entryDx=0;entryDy=0;entryPerimeter=0;" edge="1" parent="WIyWlLk6GJQsqaUBKTNV-1" source="hjpZ53rHqYIMn-Crg0at-169" target="hjpZ53rHqYIMn-Crg0at-123">
          <mxGeometry relative="1" as="geometry">
            <Array as="points">
              <mxPoint x="-38" y="-210" />
              <mxPoint x="-38" y="-856" />
              <mxPoint x="-383" y="-856" />
            </Array>
          </mxGeometry>
        </mxCell>
        <mxCell id="hjpZ53rHqYIMn-Crg0at-180" style="edgeStyle=orthogonalEdgeStyle;rounded=0;orthogonalLoop=1;jettySize=auto;html=1;" edge="1" parent="WIyWlLk6GJQsqaUBKTNV-1" source="hjpZ53rHqYIMn-Crg0at-175" target="hjpZ53rHqYIMn-Crg0at-62">
          <mxGeometry relative="1" as="geometry">
            <mxPoint x="-390.9999445134945" y="-1575.666648171165" as="targetPoint" />
            <Array as="points">
              <mxPoint x="-241" y="-1563" />
              <mxPoint x="-407" y="-1563" />
            </Array>
          </mxGeometry>
        </mxCell>
        <mxCell id="hjpZ53rHqYIMn-Crg0at-175" value="" style="shape=table;startSize=0;container=1;collapsible=0;childLayout=tableLayout;" vertex="1" parent="WIyWlLk6GJQsqaUBKTNV-1">
          <mxGeometry x="-439.2" y="-1537" width="266.2" height="40" as="geometry" />
        </mxCell>
        <mxCell id="hjpZ53rHqYIMn-Crg0at-176" value="" style="shape=tableRow;horizontal=0;startSize=0;swimlaneHead=0;swimlaneBody=0;strokeColor=inherit;top=0;left=0;bottom=0;right=0;collapsible=0;dropTarget=0;fillColor=none;points=[[0,0.5],[1,0.5]];portConstraint=eastwest;" vertex="1" parent="hjpZ53rHqYIMn-Crg0at-175">
          <mxGeometry width="266.2" height="40" as="geometry" />
        </mxCell>
        <mxCell id="hjpZ53rHqYIMn-Crg0at-177" value="&lt;u&gt;review&lt;/u&gt;" style="shape=partialRectangle;html=1;whiteSpace=wrap;connectable=0;strokeColor=inherit;overflow=hidden;fillColor=none;top=0;left=0;bottom=0;right=0;pointerEvents=1;" vertex="1" parent="hjpZ53rHqYIMn-Crg0at-176">
          <mxGeometry width="132" height="40" as="geometry">
            <mxRectangle width="132" height="40" as="alternateBounds" />
          </mxGeometry>
        </mxCell>
        <mxCell id="hjpZ53rHqYIMn-Crg0at-178" value="&lt;u&gt;movieID/seriesID&lt;/u&gt;" style="shape=partialRectangle;html=1;whiteSpace=wrap;connectable=0;strokeColor=inherit;overflow=hidden;fillColor=none;top=0;left=0;bottom=0;right=0;pointerEvents=1;" vertex="1" parent="hjpZ53rHqYIMn-Crg0at-176">
          <mxGeometry x="132" width="134" height="40" as="geometry">
            <mxRectangle width="134" height="40" as="alternateBounds" />
          </mxGeometry>
        </mxCell>
        <mxCell id="hjpZ53rHqYIMn-Crg0at-179" value="REVIEWS" style="text;strokeColor=none;align=center;fillColor=none;html=1;verticalAlign=middle;whiteSpace=wrap;rounded=0;fontStyle=1" vertex="1" parent="WIyWlLk6GJQsqaUBKTNV-1">
          <mxGeometry x="-442.2" y="-1566" width="59" height="40" as="geometry" />
        </mxCell>
        <mxCell id="hjpZ53rHqYIMn-Crg0at-181" style="edgeStyle=orthogonalEdgeStyle;rounded=0;orthogonalLoop=1;jettySize=auto;html=1;entryX=0;entryY=0.302;entryDx=0;entryDy=0;entryPerimeter=0;" edge="1" parent="WIyWlLk6GJQsqaUBKTNV-1" source="hjpZ53rHqYIMn-Crg0at-176" target="hjpZ53rHqYIMn-Crg0at-80">
          <mxGeometry relative="1" as="geometry" />
        </mxCell>
        <mxCell id="hjpZ53rHqYIMn-Crg0at-182" value="" style="shape=table;startSize=0;container=1;collapsible=0;childLayout=tableLayout;" vertex="1" parent="WIyWlLk6GJQsqaUBKTNV-1">
          <mxGeometry x="18" y="-584.5" width="314" height="40" as="geometry" />
        </mxCell>
        <mxCell id="hjpZ53rHqYIMn-Crg0at-183" value="" style="shape=tableRow;horizontal=0;startSize=0;swimlaneHead=0;swimlaneBody=0;strokeColor=inherit;top=0;left=0;bottom=0;right=0;collapsible=0;dropTarget=0;fillColor=none;points=[[0,0.5],[1,0.5]];portConstraint=eastwest;" vertex="1" parent="hjpZ53rHqYIMn-Crg0at-182">
          <mxGeometry width="314" height="40" as="geometry" />
        </mxCell>
        <mxCell id="hjpZ53rHqYIMn-Crg0at-184" value="actorID" style="shape=partialRectangle;html=1;whiteSpace=wrap;connectable=0;strokeColor=inherit;overflow=hidden;fillColor=none;top=0;left=0;bottom=0;right=0;pointerEvents=1;fontStyle=4" vertex="1" parent="hjpZ53rHqYIMn-Crg0at-183">
          <mxGeometry width="104" height="40" as="geometry">
            <mxRectangle width="104" height="40" as="alternateBounds" />
          </mxGeometry>
        </mxCell>
        <mxCell id="hjpZ53rHqYIMn-Crg0at-185" value="movieID/seriesID" style="shape=partialRectangle;html=1;whiteSpace=wrap;connectable=0;strokeColor=inherit;overflow=hidden;fillColor=none;top=0;left=0;bottom=0;right=0;pointerEvents=1;fontStyle=4" vertex="1" parent="hjpZ53rHqYIMn-Crg0at-183">
          <mxGeometry x="104" width="106" height="40" as="geometry">
            <mxRectangle width="106" height="40" as="alternateBounds" />
          </mxGeometry>
        </mxCell>
        <mxCell id="hjpZ53rHqYIMn-Crg0at-186" value="billingOrder" style="shape=partialRectangle;html=1;whiteSpace=wrap;connectable=0;strokeColor=inherit;overflow=hidden;fillColor=none;top=0;left=0;bottom=0;right=0;pointerEvents=1;fontStyle=4" vertex="1" parent="hjpZ53rHqYIMn-Crg0at-183">
          <mxGeometry x="210" width="104" height="40" as="geometry">
            <mxRectangle width="104" height="40" as="alternateBounds" />
          </mxGeometry>
        </mxCell>
        <mxCell id="hjpZ53rHqYIMn-Crg0at-187" value="ACT" style="text;strokeColor=none;align=center;fillColor=none;html=1;verticalAlign=middle;whiteSpace=wrap;rounded=0;fontStyle=1" vertex="1" parent="WIyWlLk6GJQsqaUBKTNV-1">
          <mxGeometry x="18" y="-618" width="59" height="40" as="geometry" />
        </mxCell>
        <mxCell id="hjpZ53rHqYIMn-Crg0at-189" style="edgeStyle=orthogonalEdgeStyle;rounded=0;orthogonalLoop=1;jettySize=auto;html=1;entryX=0.095;entryY=1.025;entryDx=0;entryDy=0;entryPerimeter=0;" edge="1" parent="WIyWlLk6GJQsqaUBKTNV-1" source="hjpZ53rHqYIMn-Crg0at-183" target="hjpZ53rHqYIMn-Crg0at-99">
          <mxGeometry relative="1" as="geometry">
            <Array as="points">
              <mxPoint x="71" y="-462" />
              <mxPoint x="477" y="-462" />
              <mxPoint x="477" y="-1165" />
              <mxPoint x="-387" y="-1165" />
              <mxPoint x="-387" y="-1229" />
            </Array>
          </mxGeometry>
        </mxCell>
        <mxCell id="hjpZ53rHqYIMn-Crg0at-190" style="edgeStyle=orthogonalEdgeStyle;rounded=0;orthogonalLoop=1;jettySize=auto;html=1;entryX=0.041;entryY=1.008;entryDx=0;entryDy=0;entryPerimeter=0;" edge="1" parent="WIyWlLk6GJQsqaUBKTNV-1" source="hjpZ53rHqYIMn-Crg0at-182" target="hjpZ53rHqYIMn-Crg0at-80">
          <mxGeometry relative="1" as="geometry">
            <Array as="points">
              <mxPoint x="175" y="-613" />
              <mxPoint x="556" y="-613" />
              <mxPoint x="556" y="-1305" />
              <mxPoint x="-395" y="-1305" />
            </Array>
          </mxGeometry>
        </mxCell>
        <mxCell id="hjpZ53rHqYIMn-Crg0at-191" style="edgeStyle=orthogonalEdgeStyle;rounded=0;orthogonalLoop=1;jettySize=auto;html=1;entryX=0.052;entryY=1.03;entryDx=0;entryDy=0;entryPerimeter=0;" edge="1" parent="WIyWlLk6GJQsqaUBKTNV-1" source="hjpZ53rHqYIMn-Crg0at-182" target="hjpZ53rHqYIMn-Crg0at-62">
          <mxGeometry relative="1" as="geometry">
            <Array as="points">
              <mxPoint x="175" y="-612" />
              <mxPoint x="673" y="-612" />
              <mxPoint x="673" y="-1574" />
              <mxPoint x="-388" y="-1574" />
            </Array>
          </mxGeometry>
        </mxCell>
        <mxCell id="hjpZ53rHqYIMn-Crg0at-192" style="edgeStyle=orthogonalEdgeStyle;rounded=0;orthogonalLoop=1;jettySize=auto;html=1;" edge="1" parent="WIyWlLk6GJQsqaUBKTNV-1" source="hjpZ53rHqYIMn-Crg0at-183" target="hjpZ53rHqYIMn-Crg0at-147">
          <mxGeometry relative="1" as="geometry">
            <Array as="points">
              <mxPoint x="276" y="-410" />
            </Array>
          </mxGeometry>
        </mxCell>
        <mxCell id="hjpZ53rHqYIMn-Crg0at-207" style="edgeStyle=orthogonalEdgeStyle;rounded=0;orthogonalLoop=1;jettySize=auto;html=1;entryX=0;entryY=0.5;entryDx=0;entryDy=0;" edge="1" parent="WIyWlLk6GJQsqaUBKTNV-1" source="hjpZ53rHqYIMn-Crg0at-193" target="hjpZ53rHqYIMn-Crg0at-123">
          <mxGeometry relative="1" as="geometry">
            <Array as="points">
              <mxPoint x="-510" y="-30" />
              <mxPoint x="-510" y="-480" />
              <mxPoint x="-487" y="-480" />
              <mxPoint x="-487" y="-930" />
            </Array>
          </mxGeometry>
        </mxCell>
        <mxCell id="hjpZ53rHqYIMn-Crg0at-193" value="" style="shape=table;startSize=0;container=1;collapsible=0;childLayout=tableLayout;" vertex="1" parent="WIyWlLk6GJQsqaUBKTNV-1">
          <mxGeometry x="-474" y="-50" width="281" height="40" as="geometry" />
        </mxCell>
        <mxCell id="hjpZ53rHqYIMn-Crg0at-194" value="" style="shape=tableRow;horizontal=0;startSize=0;swimlaneHead=0;swimlaneBody=0;strokeColor=inherit;top=0;left=0;bottom=0;right=0;collapsible=0;dropTarget=0;fillColor=none;points=[[0,0.5],[1,0.5]];portConstraint=eastwest;" vertex="1" parent="hjpZ53rHqYIMn-Crg0at-193">
          <mxGeometry width="281" height="40" as="geometry" />
        </mxCell>
        <mxCell id="hjpZ53rHqYIMn-Crg0at-195" value="employeeID" style="shape=partialRectangle;html=1;whiteSpace=wrap;connectable=0;strokeColor=inherit;overflow=hidden;fillColor=none;top=0;left=0;bottom=0;right=0;pointerEvents=1;fontStyle=4" vertex="1" parent="hjpZ53rHqYIMn-Crg0at-194">
          <mxGeometry width="70" height="40" as="geometry">
            <mxRectangle width="70" height="40" as="alternateBounds" />
          </mxGeometry>
        </mxCell>
        <mxCell id="hjpZ53rHqYIMn-Crg0at-196" value="Programmer" style="shape=partialRectangle;html=1;whiteSpace=wrap;connectable=0;strokeColor=inherit;overflow=hidden;fillColor=none;top=0;left=0;bottom=0;right=0;pointerEvents=1;" vertex="1" parent="hjpZ53rHqYIMn-Crg0at-194">
          <mxGeometry x="70" width="71" height="40" as="geometry">
            <mxRectangle width="71" height="40" as="alternateBounds" />
          </mxGeometry>
        </mxCell>
        <mxCell id="hjpZ53rHqYIMn-Crg0at-197" value="Web-dev" style="shape=partialRectangle;html=1;whiteSpace=wrap;connectable=0;strokeColor=inherit;overflow=hidden;fillColor=none;top=0;left=0;bottom=0;right=0;pointerEvents=1;" vertex="1" parent="hjpZ53rHqYIMn-Crg0at-194">
          <mxGeometry x="141" width="70" height="40" as="geometry">
            <mxRectangle width="70" height="40" as="alternateBounds" />
          </mxGeometry>
        </mxCell>
        <mxCell id="hjpZ53rHqYIMn-Crg0at-198" value="cyberSecurity" style="shape=partialRectangle;html=1;whiteSpace=wrap;connectable=0;strokeColor=inherit;overflow=hidden;fillColor=none;top=0;left=0;bottom=0;right=0;pointerEvents=1;" vertex="1" parent="hjpZ53rHqYIMn-Crg0at-194">
          <mxGeometry x="211" width="70" height="40" as="geometry">
            <mxRectangle width="70" height="40" as="alternateBounds" />
          </mxGeometry>
        </mxCell>
        <mxCell id="hjpZ53rHqYIMn-Crg0at-199" value="DEVELOPER" style="text;strokeColor=none;align=center;fillColor=none;html=1;verticalAlign=middle;whiteSpace=wrap;rounded=0;fontStyle=1" vertex="1" parent="WIyWlLk6GJQsqaUBKTNV-1">
          <mxGeometry x="-474" y="-81" width="59" height="40" as="geometry" />
        </mxCell>
        <mxCell id="hjpZ53rHqYIMn-Crg0at-210" style="edgeStyle=orthogonalEdgeStyle;rounded=0;orthogonalLoop=1;jettySize=auto;html=1;entryX=0;entryY=0.5;entryDx=0;entryDy=0;" edge="1" parent="WIyWlLk6GJQsqaUBKTNV-1" source="hjpZ53rHqYIMn-Crg0at-200" target="hjpZ53rHqYIMn-Crg0at-123">
          <mxGeometry relative="1" as="geometry">
            <Array as="points">
              <mxPoint x="-107" y="63" />
              <mxPoint x="-733" y="63" />
              <mxPoint x="-733" y="-930" />
            </Array>
          </mxGeometry>
        </mxCell>
        <mxCell id="hjpZ53rHqYIMn-Crg0at-200" value="" style="shape=table;startSize=0;container=1;collapsible=0;childLayout=tableLayout;" vertex="1" parent="WIyWlLk6GJQsqaUBKTNV-1">
          <mxGeometry x="-152" y="-50" width="278" height="40" as="geometry" />
        </mxCell>
        <mxCell id="hjpZ53rHqYIMn-Crg0at-201" value="" style="shape=tableRow;horizontal=0;startSize=0;swimlaneHead=0;swimlaneBody=0;strokeColor=inherit;top=0;left=0;bottom=0;right=0;collapsible=0;dropTarget=0;fillColor=none;points=[[0,0.5],[1,0.5]];portConstraint=eastwest;" vertex="1" parent="hjpZ53rHqYIMn-Crg0at-200">
          <mxGeometry width="278" height="40" as="geometry" />
        </mxCell>
        <mxCell id="hjpZ53rHqYIMn-Crg0at-202" value="emoloyeeID" style="shape=partialRectangle;html=1;whiteSpace=wrap;connectable=0;strokeColor=inherit;overflow=hidden;fillColor=none;top=0;left=0;bottom=0;right=0;pointerEvents=1;fontStyle=4" vertex="1" parent="hjpZ53rHqYIMn-Crg0at-201">
          <mxGeometry width="69" height="40" as="geometry">
            <mxRectangle width="69" height="40" as="alternateBounds" />
          </mxGeometry>
        </mxCell>
        <mxCell id="hjpZ53rHqYIMn-Crg0at-203" value="Producer" style="shape=partialRectangle;html=1;whiteSpace=wrap;connectable=0;strokeColor=inherit;overflow=hidden;fillColor=none;top=0;left=0;bottom=0;right=0;pointerEvents=1;" vertex="1" parent="hjpZ53rHqYIMn-Crg0at-201">
          <mxGeometry x="69" width="70" height="40" as="geometry">
            <mxRectangle width="70" height="40" as="alternateBounds" />
          </mxGeometry>
        </mxCell>
        <mxCell id="hjpZ53rHqYIMn-Crg0at-204" value="Director" style="shape=partialRectangle;html=1;whiteSpace=wrap;connectable=0;strokeColor=inherit;overflow=hidden;fillColor=none;top=0;left=0;bottom=0;right=0;pointerEvents=1;" vertex="1" parent="hjpZ53rHqYIMn-Crg0at-201">
          <mxGeometry x="139" width="69" height="40" as="geometry">
            <mxRectangle width="69" height="40" as="alternateBounds" />
          </mxGeometry>
        </mxCell>
        <mxCell id="hjpZ53rHqYIMn-Crg0at-205" value="sreenWriter" style="shape=partialRectangle;html=1;whiteSpace=wrap;connectable=0;strokeColor=inherit;overflow=hidden;fillColor=none;top=0;left=0;bottom=0;right=0;pointerEvents=1;" vertex="1" parent="hjpZ53rHqYIMn-Crg0at-201">
          <mxGeometry x="208" width="70" height="40" as="geometry">
            <mxRectangle width="70" height="40" as="alternateBounds" />
          </mxGeometry>
        </mxCell>
        <mxCell id="hjpZ53rHqYIMn-Crg0at-208" value="POST_PRODUCTION" style="text;strokeColor=none;align=center;fillColor=none;html=1;verticalAlign=middle;whiteSpace=wrap;rounded=0;fontStyle=1" vertex="1" parent="WIyWlLk6GJQsqaUBKTNV-1">
          <mxGeometry x="-125" y="-81" width="59" height="40" as="geometry" />
        </mxCell>
        <mxCell id="hjpZ53rHqYIMn-Crg0at-212" value="&lt;div style=&quot;box-sizing:border-box;width:100%;background:#e4e4e4;padding:2px;&quot;&gt;Tablename&lt;/div&gt;&lt;table style=&quot;width:100%;font-size:1em;&quot; cellpadding=&quot;2&quot; cellspacing=&quot;0&quot;&gt;&lt;tr&gt;&lt;td&gt;PK&lt;/td&gt;&lt;td&gt;uniqueId&lt;/td&gt;&lt;/tr&gt;&lt;tr&gt;&lt;td&gt;FK1&lt;/td&gt;&lt;td&gt;foreignKey&lt;/td&gt;&lt;/tr&gt;&lt;tr&gt;&lt;td&gt;&lt;/td&gt;&lt;td&gt;fieldname&lt;/td&gt;&lt;/tr&gt;&lt;/table&gt;" style="verticalAlign=top;align=left;overflow=fill;html=1;whiteSpace=wrap;" vertex="1" parent="WIyWlLk6GJQsqaUBKTNV-1">
          <mxGeometry x="-538" y="236" width="180" height="90" as="geometry" />
        </mxCell>
      </root>
    </mxGraphModel>
  </diagram>
</mxfile>
